<svg width="33" height="33" viewBox="0 0 33 33" fill="none" xmlns="http://www.w3.org/2000/svg">
<path d="M0.0136719 32.5234L2.62592 24.3602C1.31979 22.0745 0.666733 19.1357 0.666733 16.1969C0.666733 7.70711 7.52388 0.523438 16.3402 0.523438C25.1565 0.523438 32.0137 7.70711 32.0137 16.1969C32.0137 24.6867 25.1565 32.1969 16.3402 32.1969C13.728 32.1969 11.1157 31.5438 9.15653 30.2377L0.0136719 32.5234Z" fill="#44AD46"/>
<path d="M26.1403 22.3193C25.4872 21.0131 22.5484 19.3805 22.5484 19.3805C21.8954 19.054 21.2423 19.054 20.9158 19.707C20.9158 19.707 19.9362 20.6866 19.9362 21.0131C18.9566 21.6662 17.977 21.6662 16.9974 20.6866L14.7117 18.4009L12.426 16.1152C11.7729 15.1356 11.4464 14.4825 12.426 13.1764C12.426 12.8499 13.7321 12.1968 13.7321 12.1968C14.0586 11.8703 14.0586 11.2172 13.7321 10.5642C13.7321 10.5642 12.0995 7.95191 10.7933 7.29885C10.1403 6.97232 9.48721 6.97232 8.83415 7.29885L8.18109 8.27844C5.24231 11.2172 6.54843 14.8091 9.81374 18.0744L12.7525 21.0131L15.6913 23.9519C18.6301 26.8907 22.2219 28.5233 25.4872 25.5846L25.8137 24.2784C26.1403 23.6254 26.4668 22.9723 26.1403 22.3193Z" fill="white"/>
</svg>
