<svg width="33" height="33" viewBox="0 0 33 33" fill="none" xmlns="http://www.w3.org/2000/svg">
<path d="M16.0137 32.5234C24.8502 32.5234 32.0137 25.36 32.0137 16.5234C32.0137 7.68688 24.8502 0.523438 16.0137 0.523438C7.17712 0.523438 0.0136719 7.68688 0.0136719 16.5234C0.0136719 25.36 7.17712 32.5234 16.0137 32.5234Z" fill="url(#paint0_linear)"/>
<path d="M13.1902 23.7387C12.5628 23.7387 12.5628 23.7387 12.5628 23.1113L10.9941 18.0917L22.602 11.1897" fill="#C8DAEA"/>
<path d="M13.1904 23.7393C13.5042 23.7393 13.8179 23.4256 14.1316 23.4256L16.3277 21.2295L13.1904 19.6609" fill="#AAC9DD"/>
<path d="M13.1901 19.6609L19.4646 24.3668C20.0921 24.6805 20.7195 24.6805 21.0332 23.7393L23.543 11.504C24.1705 10.2491 23.543 9.93542 22.6019 10.2491L7.22932 16.2099C6.28814 16.5237 6.28814 17.1511 7.22932 17.4648L11.3078 18.7197L20.4058 13.0727C20.7195 12.7589 21.347 13.0727 21.0332 13.3864" fill="url(#paint1_linear)"/>
<defs>
<linearGradient id="paint0_linear" x1="20.6518" y1="5.58822" x2="12.6706" y2="24.1859" gradientUnits="userSpaceOnUse">
<stop stop-color="#38AEE2"/>
<stop offset="1" stop-color="#2096C9"/>
</linearGradient>
<linearGradient id="paint1_linear" x1="17.122" y1="16.8413" x2="19.6132" y2="22.525" gradientUnits="userSpaceOnUse">
<stop stop-color="#EFF7FC"/>
<stop offset="1" stop-color="white"/>
</linearGradient>
</defs>
</svg>
