<svg width="170" height="171" viewBox="0 0 170 171" fill="none" xmlns="http://www.w3.org/2000/svg">
<g filter="url(#filter0_d)">
<circle cx="85.1743" cy="81.4596" r="80.7524" fill="#DC386A"/>
</g>
<g clip-path="url(#clip0)">
<path d="M53.7954 95.7678C53.4975 95.4683 53.0843 95.2985 52.6631 95.2985C52.2419 95.2985 51.8287 95.4683 51.5308 95.7678C51.2329 96.0657 51.0615 96.4773 51.0615 96.9001C51.0615 97.3213 51.2329 97.7345 51.5308 98.0322C51.8287 98.3301 52.2419 98.5017 52.6631 98.5017C53.0843 98.5015 53.4975 98.3301 53.7954 98.0322C54.0933 97.7345 54.2646 97.3213 54.2646 96.9001C54.2646 96.477 54.0933 96.0657 53.7954 95.7678Z" fill="white"/>
<path d="M126.119 70.7607C125.892 69.9057 125.016 69.396 124.161 69.623L122.649 70.0235V67.5344C123.707 67.0299 124.613 66.2246 125.253 65.1822C126.388 63.3333 126.479 61.075 125.497 59.1403L122.649 53.53V44.9452C122.649 42.4725 120.638 40.4609 118.165 40.4609H52.1826C49.7099 40.4609 47.6984 42.4727 47.6984 44.9452V53.5303L44.8505 59.1406C43.8686 61.0751 43.9599 63.3337 45.0947 65.1825C45.7346 66.225 46.6409 67.0302 47.6984 67.5347V70.0221L46.187 69.6212C45.3322 69.3948 44.4552 69.9037 44.2284 70.7588C44.0017 71.6137 44.511 72.4906 45.366 72.7174L63.8167 77.6108L63.1245 80.1943C63.124 80.1962 63.1235 80.1981 63.1229 80.2L57.0196 102.976L46.191 100.075C45.3364 99.8456 44.4584 100.353 44.2294 101.207C44.0004 102.062 44.5074 102.94 45.3619 103.169L47.6982 103.795V120.857C47.6982 121.742 48.4152 122.459 49.2998 122.459H121.048C121.932 122.459 122.649 121.742 122.649 120.857V103.794L124.985 103.169C125.84 102.94 126.347 102.062 126.118 101.208C125.889 100.353 125.011 99.8462 124.157 100.075L113.318 102.977L106.522 77.6106L124.982 72.719C125.836 72.4927 126.346 71.6158 126.119 70.7607ZM50.9014 44.9452C50.9014 44.2387 51.4762 43.6639 52.1826 43.6639H118.165C118.872 43.6639 119.446 44.2387 119.446 44.9452V46.3866H109.376C108.492 46.3866 107.775 47.1037 107.775 47.9881C107.775 48.8725 108.492 49.5897 109.376 49.5897H119.446V52.3123H50.9014V44.9452ZM111.759 55.5151V59.9182C111.759 62.6828 109.51 64.932 106.745 64.932H105.883C103.118 64.932 100.869 62.6828 100.869 59.9182V55.5151H111.759ZM97.6655 55.5151V59.9182C97.6655 62.6828 95.4163 64.932 92.6517 64.932H91.7891C89.0243 64.932 86.7752 62.6828 86.7752 59.9182V55.5151H97.6655ZM83.5723 55.5151V59.9182C83.5723 62.6828 81.323 64.932 78.5584 64.932H77.6958C74.931 64.932 72.682 62.6828 72.682 59.9182V55.5151H83.5723ZM69.4788 55.5151V59.9182C69.4788 62.6828 67.2296 64.932 64.465 64.932H63.6024C60.8378 64.932 58.5885 62.6828 58.5885 59.9182V55.5151H69.4788ZM47.8246 63.5071C47.2685 62.6011 47.2254 61.5381 47.7066 60.5907L50.283 55.5155H55.3857V59.9185C55.3857 62.6833 53.1365 64.9323 50.3719 64.9323C49.3091 64.9322 48.3807 64.4128 47.8246 63.5071ZM50.9014 119.256V116.056H58.8515C59.736 116.056 60.4531 115.339 60.4531 114.454C60.4531 113.57 59.736 112.853 58.8515 112.853H50.9014V104.653L57.7376 106.485C57.8741 106.521 58.0134 106.539 58.1521 106.539C58.4308 106.539 58.7074 106.467 58.9529 106.325C59.1393 106.217 59.2999 106.074 59.4276 105.906L65.1581 107.469C65.0853 108.071 65.1269 108.688 65.2887 109.291C65.6208 110.531 66.4158 111.567 67.5272 112.209C68.2676 112.636 69.0892 112.854 69.9218 112.854C70.2529 112.854 70.5854 112.818 70.9154 112.749C71.2711 113.834 72.0107 114.797 73.0751 115.412C73.8155 115.839 74.6371 116.057 75.4698 116.057C75.8 116.057 76.1317 116.022 76.4608 115.952C76.8292 117.079 77.589 118.018 78.623 118.615C79.3208 119.018 80.0911 119.232 80.8746 119.256H50.9014V119.256ZM68.5424 107.247L70.4643 103.918C70.6781 103.548 71.0235 103.283 71.4367 103.172C71.5746 103.135 71.7146 103.117 71.8538 103.117C72.1312 103.117 72.4052 103.189 72.652 103.332C73.4166 103.774 73.6797 104.755 73.2382 105.52L71.3163 108.848C71.1025 109.219 70.757 109.484 70.344 109.595C69.9308 109.706 69.4992 109.648 69.1286 109.435C68.7581 109.221 68.4932 108.875 68.3824 108.462C68.2717 108.049 68.3286 107.617 68.5424 107.247ZM74.0901 110.45L76.0119 107.121C76.3084 106.608 76.8476 106.321 77.4018 106.321C77.6732 106.321 77.9484 106.39 78.1998 106.535C78.9644 106.977 79.2275 107.958 78.786 108.723L76.8641 112.051C76.6502 112.422 76.3047 112.687 75.8915 112.798C75.4785 112.908 75.0468 112.852 74.6762 112.638C73.9116 112.196 73.6487 111.215 74.0901 110.45ZM81.1602 119.255C81.443 119.247 81.7266 119.214 82.0083 119.155C82.0194 119.189 82.0316 119.222 82.0433 119.255H81.1602ZM84.3338 111.926L82.4119 115.254C82.198 115.625 81.8527 115.89 81.4395 116.001C81.0261 116.111 80.5946 116.054 80.2242 115.841C79.8538 115.627 79.5887 115.281 79.478 114.868C79.3674 114.455 79.4239 114.023 79.6379 113.653L81.5597 110.324C81.8562 109.811 82.3954 109.524 82.9496 109.524C83.221 109.524 83.4962 109.593 83.7476 109.738C84.5122 110.18 84.7754 111.161 84.3338 111.926ZM89.8816 115.129L87.9597 118.457C87.7458 118.828 87.4005 119.093 86.9873 119.204C86.884 119.231 86.7796 119.249 86.6753 119.255H86.4863C86.2377 119.242 85.9937 119.172 85.7717 119.044C85.4012 118.83 85.1364 118.484 85.0255 118.071C84.9149 117.658 84.9717 117.226 85.1855 116.856L87.1074 113.527C87.4038 113.014 87.9431 112.727 88.4972 112.727C88.7682 112.727 89.0429 112.796 89.2942 112.94L89.2969 112.942C90.0604 113.384 90.3228 114.365 89.8816 115.129ZM94.1033 117.581L94.094 117.597C93.6547 118.359 92.677 118.622 91.9148 118.184L91.8408 118.141L92.6554 116.73C92.9339 116.248 93.1179 115.736 93.2151 115.218L93.5244 115.397C94.2842 115.838 94.5449 116.816 94.1033 117.581ZM112.185 106.54C112.322 106.54 112.461 106.522 112.6 106.485L119.446 104.652V119.255H119.446H96.8322C96.8446 119.235 96.858 119.216 96.87 119.195L96.8793 119.179C97.4924 118.117 97.6511 116.915 97.4175 115.798C98.5434 115.431 99.4815 114.672 100.078 113.638C100.692 112.575 100.851 111.373 100.617 110.258C100.909 110.162 101.188 110.041 101.451 109.896L111.063 106.079C111.359 106.369 111.76 106.54 112.185 106.54ZM110.02 103.046L103.917 105.47C103.905 105.214 103.873 104.96 103.82 104.71C104.946 104.342 105.884 103.582 106.484 102.542C107.808 100.25 107.019 97.3081 104.727 95.9847L98.147 92.1856C97.3811 91.7433 96.4014 92.0058 95.9592 92.7718C95.5169 93.5378 95.7794 94.5172 96.5454 94.9595L103.126 98.7586C103.888 99.199 104.151 100.178 103.706 100.948C103.493 101.318 103.148 101.582 102.736 101.692C102.324 101.803 101.894 101.746 101.524 101.533L94.9438 97.7336C94.1778 97.2916 93.1983 97.5538 92.7561 98.3198C92.3138 99.0858 92.5762 100.065 93.3423 100.508L99.9225 104.306C100.685 104.747 100.948 105.726 100.514 106.477C100.512 106.481 100.505 106.492 100.503 106.496C100.38 106.71 100.211 106.887 100.012 107.021L100.005 107.023C99.8962 107.067 99.7953 107.121 99.7018 107.184C99.6468 107.205 99.5908 107.225 99.533 107.24C99.121 107.351 98.6905 107.294 98.3209 107.08L91.7407 103.281C90.9748 102.839 89.9952 103.101 89.553 103.868C89.1106 104.634 89.3731 105.613 90.1392 106.055L96.7193 109.854C97.4822 110.295 97.7443 111.274 97.3041 112.037C97.0904 112.407 96.7451 112.671 96.3321 112.781C95.9192 112.891 95.4882 112.834 95.1186 112.619L90.8999 110.169C90.8994 110.169 90.8991 110.169 90.8986 110.168C90.8978 110.168 90.8972 110.167 90.8964 110.167C90.8964 110.167 90.8964 110.167 90.8962 110.167C89.8313 109.552 88.6266 109.393 87.5087 109.628C87.1534 108.543 86.4134 107.579 85.3486 106.964H85.3484C84.2835 106.349 83.0788 106.19 81.9609 106.425C81.6055 105.34 80.8656 104.376 79.8007 103.761C78.7357 103.146 77.531 102.987 76.4131 103.222C76.0576 102.137 75.3178 101.173 74.2529 100.558C73.1415 99.9162 71.8466 99.746 70.6071 100.078C69.3674 100.41 68.3313 101.205 67.6899 102.317L66.4312 104.497L60.3707 102.844L66.003 81.8238L76.6847 78.0277C77.7429 77.6516 78.9002 77.7705 79.8598 78.3531L84.0575 80.9018L80.8105 86.1393C79.5242 88.2141 79.8382 90.8618 81.5743 92.5783C82.5836 93.5761 83.9072 94.0748 85.2308 94.0748C86.5598 94.0747 87.889 93.5719 88.8989 92.5671L96.9794 84.5292C97.6066 83.9052 97.6093 82.8913 96.9855 82.2641C96.3615 81.6369 95.3476 81.6344 94.7206 82.2582L86.6402 90.2961C85.8657 91.0669 84.6034 91.0685 83.8266 90.3006C83.1597 89.6411 83.0391 88.6239 83.533 87.827L87.9252 80.7423C88.8288 79.2849 90.2216 78.1821 91.8474 77.6367L94.8474 76.6306C96.0247 76.2355 97.3207 76.3579 98.4032 76.9657L103.851 80.0243L110.02 103.046ZM119.446 70.8725L104.149 74.9262C103.737 75.0353 103.386 75.3032 103.173 75.6716C103.129 75.7475 103.093 75.827 103.062 75.9078L99.9719 74.1725C98.102 73.1227 95.8631 72.9116 93.8296 73.5937L90.8296 74.5998C88.8247 75.2722 87.0683 76.5371 85.7911 78.2064L81.5231 75.6148C79.7365 74.5302 77.5826 74.309 75.6131 75.009L67.0107 78.0663L67.3263 76.8883C67.4365 76.4775 67.3785 76.0395 67.1654 75.6713C66.9522 75.3031 66.6013 75.0348 66.19 74.9258L50.9015 70.8711V68.1159C53.3943 67.9564 55.5882 66.6814 56.9873 64.7848C58.4849 66.815 60.8921 68.1348 63.6027 68.1348H64.4653C67.1759 68.1348 69.5833 66.8148 71.0807 64.7848C72.5783 66.815 74.9855 68.1348 77.6961 68.1348H78.5587C81.2692 68.1348 83.6767 66.8148 85.1742 64.7848C86.6718 66.815 89.0789 68.1348 91.7896 68.1348H92.6522C95.3626 68.1348 97.7701 66.8148 99.2676 64.7848C100.765 66.815 103.172 68.1348 105.883 68.1348H106.746C109.456 68.1348 111.864 66.8148 113.361 64.7848C114.76 66.6816 116.954 67.9564 119.447 68.1159V70.8725H119.446ZM119.976 64.932C117.211 64.932 114.962 62.6828 114.962 59.9182V55.5151H120.065L122.641 60.5903C123.122 61.5381 123.079 62.6011 122.523 63.5069C121.967 64.4126 121.039 64.932 119.976 64.932Z" fill="white"/>
<path d="M118.807 95.7676C118.509 95.4681 118.096 95.2984 117.675 95.2984C117.254 95.2984 116.84 95.4681 116.542 95.7676C116.245 96.0655 116.073 96.4771 116.073 96.8999C116.073 97.3211 116.245 97.7326 116.542 98.0321C116.84 98.33 117.254 98.5015 117.675 98.5015C118.096 98.5015 118.509 98.3301 118.807 98.0321C119.105 97.7326 119.276 97.3211 119.276 96.8999C119.276 96.4768 119.105 96.0655 118.807 95.7676Z" fill="white"/>
<path d="M65.7807 113.322C65.4829 113.024 65.0696 112.852 64.6484 112.852C64.2272 112.852 63.814 113.024 63.5161 113.322C63.2182 113.62 63.0469 114.033 63.0469 114.454C63.0469 114.875 63.2182 115.288 63.5161 115.586C63.814 115.884 64.2272 116.056 64.6484 116.056C65.0712 116.056 65.4829 115.884 65.7807 115.586C66.0786 115.288 66.25 114.875 66.25 114.454C66.25 114.033 66.0786 113.62 65.7807 113.322Z" fill="white"/>
<path d="M104.71 46.8558C104.413 46.5579 103.999 46.3865 103.578 46.3865C103.157 46.3865 102.744 46.5577 102.446 46.8558C102.148 47.1537 101.977 47.5669 101.977 47.9881C101.977 48.4093 102.148 48.8225 102.446 49.1202C102.744 49.4183 103.157 49.5896 103.578 49.5896C103.999 49.5896 104.413 49.4183 104.71 49.1202C105.008 48.8225 105.18 48.4093 105.18 47.9881C105.18 47.5669 105.008 47.1535 104.71 46.8558Z" fill="white"/>
</g>
<defs>
<filter id="filter0_d" x="0.421875" y="0.707153" width="169.505" height="169.505" filterUnits="userSpaceOnUse" color-interpolation-filters="sRGB">
<feFlood flood-opacity="0" result="BackgroundImageFix"/>
<feColorMatrix in="SourceAlpha" type="matrix" values="0 0 0 0 0 0 0 0 0 0 0 0 0 0 0 0 0 0 127 0"/>
<feOffset dy="4"/>
<feGaussianBlur stdDeviation="2"/>
<feColorMatrix type="matrix" values="0 0 0 0 0 0 0 0 0 0 0 0 0 0 0 0 0 0 0.25 0"/>
<feBlend mode="normal" in2="BackgroundImageFix" result="effect1_dropShadow"/>
<feBlend mode="normal" in="SourceGraphic" in2="effect1_dropShadow" result="shape"/>
</filter>
<clipPath id="clip0">
<rect x="44.1738" y="40.4596" width="82" height="82" fill="white"/>
</clipPath>
</defs>
</svg>
