<svg width="237" height="49" viewBox="0 0 237 49" fill="none" xmlns="http://www.w3.org/2000/svg">
<g clip-path="url(#clip0)">
<path d="M34.001 0.522461C34.001 0.522461 34.101 0.522461 34.101 0.622461C34.101 0.622461 34.101 0.522461 34.001 0.522461Z" fill="#0B758E"/>
<path d="M33.001 0.722437C33.101 0.722437 33.201 0.622437 33.301 0.622437C33.101 0.622437 33.101 0.722437 33.001 0.722437Z" fill="#0B758E"/>
<path d="M34.4014 0.722412C34.5014 0.722412 34.5014 0.822412 34.6014 0.822412C34.6014 0.822412 34.5014 0.722412 34.4014 0.722412Z" fill="#0B758E"/>
<path d="M34.8008 1.02246C34.9008 1.12246 34.9008 1.12246 34.9008 1.22246C34.9008 1.12246 34.9008 1.12246 34.8008 1.02246Z" fill="#0B758E"/>
<path d="M11.6008 47.9224C11.5008 47.8224 11.4008 47.7224 11.3008 47.6224C11.4008 47.8224 11.5008 47.9224 11.6008 47.9224Z" fill="#0B758E"/>
<path d="M11.3016 47.6224C11.2016 47.5224 11.2016 47.3224 11.1016 47.2224C11.2016 47.3224 11.3016 47.5224 11.3016 47.6224Z" fill="#0B758E"/>
<path d="M12.6012 48.3224C12.4012 48.3224 12.3012 48.3224 12.2012 48.2224C12.3012 48.3224 12.4012 48.3224 12.6012 48.3224Z" fill="#0B758E"/>
<path d="M32.6016 1.02251C32.7016 0.92251 32.7016 0.92251 32.8016 0.82251C32.7016 0.92251 32.6016 0.92251 32.6016 1.02251Z" fill="#0B758E"/>
<path d="M12.0012 48.2225C11.9012 48.2225 11.8012 48.1225 11.7012 48.0225C11.8012 48.1225 11.9012 48.1225 12.0012 48.2225Z" fill="#0B758E"/>
<path d="M22.7016 28.8224L32.2016 8.72241V2.02241C32.2016 1.72241 32.3016 1.52241 32.4016 1.22241L32.3016 1.32241L20.1016 27.4224L22.7016 28.8224Z" fill="#7F3488"/>
<path d="M55.7014 48.0225C55.6014 48.1225 55.5014 48.1225 55.4014 48.2225C55.5014 48.1225 55.6014 48.1225 55.7014 48.0225Z" fill="#27B7CE"/>
<path d="M55.2008 48.2224C55.1008 48.2224 54.9008 48.3224 54.8008 48.3224C55.0008 48.3224 55.1008 48.3224 55.2008 48.2224Z" fill="#27B7CE"/>
<path d="M56.1016 47.6224C56.2016 47.5224 56.2016 47.3224 56.3016 47.2224C56.2016 47.3224 56.1016 47.5224 56.1016 47.6224Z" fill="#27B7CE"/>
<path d="M56.0012 47.6224C55.9012 47.7224 55.8012 47.8224 55.7012 47.9224C55.9012 47.9224 56.0012 47.8224 56.0012 47.6224Z" fill="#27B7CE"/>
<path d="M32.2016 8.72244V33.6224L33.7016 34.4224L35.2016 33.6224V8.72244L44.7016 28.8224L47.4016 27.4224L35.1016 1.42244C35.1016 1.32244 35.0016 1.32244 35.0016 1.32244C35.0016 1.22244 34.9016 1.22244 34.9016 1.12244C34.8016 1.02244 34.8016 1.02244 34.7016 0.922437C34.6016 0.922437 34.6016 0.822437 34.5016 0.822437C34.4016 0.822437 34.3016 0.722437 34.2016 0.722437C34.1016 0.722437 34.1016 0.622437 34.0016 0.622437C33.9016 0.622437 33.8016 0.622437 33.7016 0.622437C33.6016 0.622437 33.5016 0.622437 33.4016 0.622437C33.4016 0.622437 33.4016 0.622437 33.3016 0.622437C33.2016 0.622437 33.2016 0.622437 33.1016 0.722437C33.0016 0.722437 32.9016 0.822437 32.8016 0.822437C32.7016 0.822437 32.7016 0.922437 32.6016 0.922437C32.5016 1.02244 32.5016 1.02244 32.4016 1.12244C32.3016 1.22244 32.3016 1.22244 32.3016 1.32244C32.2016 1.52244 32.1016 1.82244 32.1016 2.12244L32.2016 8.72244Z" fill="#DC386A"/>
<path d="M11.9013 45.5225L13.5013 44.7225L5.10126 23.2225L30.4013 36.1225L33.7013 34.4225L32.1013 33.5225L22.6013 28.7225L19.9013 27.3225L3.00126 18.8225C2.40126 18.5225 1.80126 18.6225 1.30126 19.0225C0.801262 19.4225 0.701262 20.1225 0.901262 20.7225L11.1013 46.9225C11.1013 46.3225 11.4013 45.7225 11.9013 45.5225Z" fill="#DC386A"/>
<path d="M56.0016 47.3224C55.8016 47.9224 55.2016 48.3224 54.6016 48.3224H54.8016C55.0016 48.3224 55.1016 48.3224 55.2016 48.2224H55.3016C55.4016 48.2224 55.5016 48.1224 55.6016 48.0224C55.6016 48.0224 55.7016 48.0224 55.7016 47.9224C55.8016 47.8224 55.9016 47.7224 56.0016 47.6224C56.1016 47.5224 56.1016 47.3224 56.2016 47.2224V47.1224C56.2016 47.0224 56.2016 46.9224 56.2016 46.8224V46.7224L56.0016 47.3224Z" fill="#27B7CE"/>
<path d="M66.0016 19.0225C65.5016 18.6225 64.9016 18.5225 64.3016 18.8225L47.3016 27.5225L44.6016 28.9225L35.1016 33.7225L33.6016 34.5225L30.3016 36.2225L13.4016 44.8225L11.9016 45.5225C11.4016 45.8225 11.1016 46.3225 11.1016 46.9225C11.1016 47.0225 11.1016 47.0225 11.1016 47.1225V47.2225C11.1016 47.3225 11.2016 47.5225 11.3016 47.6225C11.4016 47.7225 11.5016 47.8225 11.6016 47.9225L11.7016 48.0225C11.8016 48.1225 11.9016 48.1225 12.0016 48.2225H12.1016C12.2016 48.2225 12.4016 48.3225 12.5016 48.3225H12.6016H33.6016H54.5016C55.1016 48.3225 55.7016 47.9225 55.9016 47.3225L56.2016 46.6225L66.3016 20.6225C66.6016 20.1225 66.5016 19.4225 66.0016 19.0225ZM53.6016 45.3225H52.5016H48.6016H35.2016H32.2016H18.8016L62.1016 23.2225L53.6016 45.3225Z" fill="#7F3488"/>
<path d="M89.8008 38.7225L83.7008 30.6225L82.1008 32.5225V38.7225H77.8008V18.5225H82.1008V27.5225L89.2008 18.5225H94.5008L86.5008 28.0225L95.1008 38.7225H89.8008Z" fill="black"/>
<path d="M94.6006 28.6224C94.6006 22.5224 99.0006 18.2224 105.101 18.2224C111.201 18.2224 115.701 22.6224 115.701 28.6224C115.701 34.7224 111.301 39.0224 105.101 39.0224C99.1006 39.0224 94.6006 34.7224 94.6006 28.6224ZM111.301 28.6224C111.301 24.8224 108.901 22.0224 105.201 22.0224C101.501 22.0224 99.1006 24.8224 99.1006 28.6224C99.1006 32.4224 101.501 35.2224 105.201 35.2224C108.901 35.2224 111.301 32.4224 111.301 28.6224Z" fill="black"/>
<path d="M118.701 38.7225V18.5225H128.101C132.501 18.5225 134.901 21.5225 134.901 25.0225C134.901 28.5225 132.501 31.5225 128.101 31.5225H123.001V38.7225H118.701ZM130.601 25.0225C130.601 23.3225 129.301 22.3225 127.601 22.3225H123.001V27.7225H127.601C129.301 27.7225 130.601 26.7225 130.601 25.0225Z" fill="black"/>
<path d="M149.301 38.7225L148.101 35.3225H139.501L138.201 38.7225H133.301L141.101 18.5225H146.501L154.301 38.7225H149.301ZM143.701 22.8225L140.601 31.5225H146.901L143.701 22.8225Z" fill="black"/>
<path d="M170.801 18.5225V22.3225H160.401V25.9225H165.601C169.901 25.9225 172.301 28.8225 172.301 32.3225C172.301 35.8225 169.901 38.7225 165.601 38.7225H156.101V18.5225H170.801ZM160.401 29.6225V34.9225H165.101C166.801 34.9225 168.001 33.9225 168.001 32.3225C168.001 30.7225 166.801 29.7225 165.101 29.7225H160.401V29.6225Z" fill="black"/>
<path d="M173.701 35.2225C175.701 35.2225 176.901 34.1225 177.501 28.8225L178.801 18.5225H193.101V38.7225H188.801V22.3225H182.701L181.901 29.1225C180.901 37.5225 177.901 39.0225 173.801 39.0225L173.701 35.2225Z" fill="black"/>
<path d="M197.101 38.7225V18.5225H201.401V31.5225L210.701 18.5225H215.101V38.7225H210.801V25.2225L201.201 38.7225H197.101Z" fill="black"/>
<path d="M231.101 38.7225L225.001 30.6225L223.401 32.5225V38.7225H219.101V18.5225H223.401V27.5225L230.501 18.5225H235.801L227.801 28.0225L236.401 38.7225H231.101Z" fill="black"/>
</g>
<defs>
<clipPath id="clip0">
<rect x="0.800781" y="0.522461" width="235.6" height="47.8" fill="white"/>
</clipPath>
</defs>
</svg>
