<?xml version="1.0" encoding="utf-8"?>
<!-- Generator: Adobe Illustrator 23.1.0, SVG Export Plug-In . SVG Version: 6.00 Build 0)  -->
<svg version="1.1" id="Layer_1" xmlns="http://www.w3.org/2000/svg" xmlns:xlink="http://www.w3.org/1999/xlink" x="0px" y="0px"
	 viewBox="0 0 411.2 31.5" style="enable-background:new 0 0 411.2 31.5;" xml:space="preserve">
<style type="text/css">
	.st0{fill:#4D4C4C;}
	.st1{fill:#D70B72;}
</style>
<g>
	<g>
		<polygon class="st0" points="0,30.2 6,30.2 6,7 20.5,7 20.5,30.2 26.5,30.2 26.5,1.2 0,1.2 		"/>
		<path class="st0" d="M44.1,1.3H31.9v28.9h6v-9.9h6.2c4.6,0,9.5-3.3,9.5-9.3C53.6,4.7,48.7,1.3,44.1,1.3z M44.1,14.6h-6.2V7h6.2
			c1.2,0,3.5,1.1,3.5,4C47.6,14.2,44.1,14.6,44.1,14.6z"/>
		<path class="st0" d="M304.1,11.2H298V1.3h-6v28.9h12.2c4.6,0,9.5-3.4,9.5-9.7C313.6,14.4,308.7,11.2,304.1,11.2z M304.1,24.5H298
			v-7.6h6.2c0,0,3.5,0.3,3.5,3.6C307.6,23.4,305.3,24.5,304.1,24.5z"/>
		<path class="st0" d="M135.7,25.7c-6.2,0-9.4-3.6-9.4-10s3.2-10,9.4-10c2.5,0,4.5,0.8,6,1.9l3.5-4.9c-2.5-1.8-5.7-2.7-9.5-2.7
			c-9.5,0-15.4,6-15.4,15.7s5.9,15.7,15.4,15.7c3.9,0,7.2-1,9.8-2.9l-3.6-4.8C140.4,24.8,138.3,25.7,135.7,25.7z"/>
		<path class="st0" d="M239.7,25.7c-6.2,0-9.4-3.6-9.4-10s3.2-10,9.4-10c2.5,0,4.5,0.8,6,1.9l3.5-4.9c-2.5-1.8-5.7-2.7-9.5-2.7
			c-9.5,0-15.4,6-15.4,15.7s5.9,15.7,15.4,15.7c3.9,0,7.2-1,9.8-2.9l-3.6-4.8C244.4,24.8,242.3,25.7,239.7,25.7z"/>
		<path class="st0" d="M341.2,25.7c-6.2,0-9.4-3.6-9.4-10s3.2-10,9.4-10c2.5,0,4.5,0.8,6,1.9l3.5-4.9C348.2,0.9,345,0,341.2,0
			c-9.5,0-15.4,6-15.4,15.7s5.9,15.7,15.4,15.7c3.9,0,7.2-1,9.8-2.9l-3.6-4.8C345.9,24.8,343.8,25.7,341.2,25.7z"/>
		<polygon class="st0" points="173.2,1.3 165.7,1.3 155.1,12.9 155.1,1.2 149.1,1.2 149.1,30.1 155.1,30.1 155.1,17 168,30.2 
			176.3,30.1 161.1,14.7 		"/>
		
			<rect x="304.5" y="12.7" transform="matrix(3.417909e-03 -1 1 3.417909e-03 302.1568 334.6756)" class="st0" width="28.9" height="6"/>
		<path class="st0" d="M398.8,1.3h-5.5l-12,28.3L369.1,1.3h-5.5l-12.3,28.8h6.5l8.5-20l8.6,20h6.5l0,0h6l2.4-5.8H402l2.5,5.8h6.5
			L398.8,1.3z M392.6,18.4l3.5-8.3l3.5,8.3H392.6z"/>
		<path class="st0" d="M70.7,0C62.1,0,55,7.1,55,15.7c0,8.7,7.1,15.7,15.7,15.7s15.7-7.1,15.7-15.7C86.5,7.1,79.4,0,70.7,0z
			 M70.7,25.5c-5.4,0-10-4.4-10-9.7c0-0.7,0.1-1.3,0.2-2c0.5-2.1,1.6-3.9,3.2-5.3C66,7,68.3,6,70.7,6c2.4,0,4.6,0.8,6.3,2.2
			c1.6,1.3,2.8,3.1,3.4,5.1c0.2,0.8,0.3,1.6,0.3,2.4C80.7,21.1,76.1,25.5,70.7,25.5z"/>
		<polygon class="st0" points="97,20.2 96.5,21.6 96.5,21 96.5,8.7 96.5,1.2 90.5,1.2 90.5,30.2 97.2,30.2 109.4,12.4 109.9,11 
			109.9,23.9 109.9,23.9 109.9,30.1 115.9,30.1 115.9,1.3 110.1,1.3 		"/>
		<polygon class="st0" points="183.5,20.2 182.9,21.6 182.9,21 182.9,8.7 182.9,1.2 176.9,1.2 176.9,30.2 183.6,30.2 195.8,12.4 
			196.3,11 196.3,23.9 196.3,23.9 196.3,30.1 202.3,30.1 202.3,1.3 196.6,1.3 		"/>
		<polygon class="st0" points="269.3,22.8 258.8,1.3 253.1,1.3 253.1,30.1 259.1,30.1 259.1,29.2 259.1,29.2 259.1,13.3 260,16.3 
			266.6,30.2 269.3,30.2 272,30.2 278.5,16.6 279.6,13.3 279.6,14.4 279.6,14.3 279.6,30.1 285.6,30.1 285.6,1.3 279.9,1.3 		"/>
	</g>
</g>
<path class="st1" d="M84.9,8.9c-0.9-1.8-2.1-3.5-3.6-4.8L70.5,14.8l-6.3-6.3c-1.6,1.4-2.8,3.2-3.2,5.3l9.5,9.5L84.9,8.9z"/>
</svg>
