<svg width="236" height="49" viewBox="0 0 236 49" fill="none" xmlns="http://www.w3.org/2000/svg">
<g clip-path="url(#clip0)">
<path d="M33.501 0.522461C33.501 0.522461 33.601 0.522461 33.601 0.622461C33.601 0.622461 33.601 0.522461 33.501 0.522461Z" fill="#0B758E"/>
<path d="M32.501 0.722437C32.601 0.722437 32.701 0.622437 32.801 0.622437C32.601 0.622437 32.601 0.722437 32.501 0.722437Z" fill="#0B758E"/>
<path d="M33.9014 0.722412C34.0014 0.722412 34.0014 0.822412 34.1014 0.822412C34.1014 0.822412 34.0014 0.722412 33.9014 0.722412Z" fill="#0B758E"/>
<path d="M34.3008 1.02246C34.4008 1.12246 34.4008 1.12246 34.4008 1.22246C34.4008 1.12246 34.4008 1.12246 34.3008 1.02246Z" fill="#0B758E"/>
<path d="M11.1008 47.9224C11.0008 47.8224 10.9008 47.7224 10.8008 47.6224C10.9008 47.8224 11.0008 47.9224 11.1008 47.9224Z" fill="#0B758E"/>
<path d="M10.8016 47.6224C10.7016 47.5224 10.7016 47.3224 10.6016 47.2224C10.7016 47.3224 10.8016 47.5224 10.8016 47.6224Z" fill="#0B758E"/>
<path d="M12.1012 48.3224C11.9012 48.3224 11.8012 48.3224 11.7012 48.2224C11.8012 48.3224 11.9012 48.3224 12.1012 48.3224Z" fill="#0B758E"/>
<path d="M32.1016 1.02251C32.2016 0.92251 32.2016 0.92251 32.3016 0.82251C32.2016 0.92251 32.1016 0.92251 32.1016 1.02251Z" fill="#0B758E"/>
<path d="M11.5012 48.2225C11.4012 48.2225 11.3012 48.1225 11.2012 48.0225C11.3012 48.1225 11.4012 48.1225 11.5012 48.2225Z" fill="#0B758E"/>
<path d="M22.2016 28.8224L31.7016 8.72241V2.02241C31.7016 1.72241 31.8016 1.52241 31.9016 1.22241L31.8016 1.32241L19.6016 27.4224L22.2016 28.8224Z" fill="#7F3488"/>
<path d="M55.2014 48.0225C55.1014 48.1225 55.0014 48.1225 54.9014 48.2225C55.0014 48.1225 55.1014 48.1225 55.2014 48.0225Z" fill="#27B7CE"/>
<path d="M54.7008 48.2224C54.6008 48.2224 54.4008 48.3224 54.3008 48.3224C54.5008 48.3224 54.6008 48.3224 54.7008 48.2224Z" fill="#27B7CE"/>
<path d="M55.6016 47.6224C55.7016 47.5224 55.7016 47.3224 55.8016 47.2224C55.7016 47.3224 55.6016 47.5224 55.6016 47.6224Z" fill="#27B7CE"/>
<path d="M55.5012 47.6224C55.4012 47.7224 55.3012 47.8224 55.2012 47.9224C55.4012 47.9224 55.5012 47.8224 55.5012 47.6224Z" fill="#27B7CE"/>
<path d="M31.7016 8.72244V33.6224L33.2016 34.4224L34.7016 33.6224V8.72244L44.2016 28.8224L46.9016 27.4224L34.6016 1.42244C34.6016 1.32244 34.5016 1.32244 34.5016 1.32244C34.5016 1.22244 34.4016 1.22244 34.4016 1.12244C34.3016 1.02244 34.3016 1.02244 34.2016 0.922437C34.1016 0.922437 34.1016 0.822437 34.0016 0.822437C33.9016 0.822437 33.8016 0.722437 33.7016 0.722437C33.6016 0.722437 33.6016 0.622437 33.5016 0.622437C33.4016 0.622437 33.3016 0.622437 33.2016 0.622437C33.1016 0.622437 33.0016 0.622437 32.9016 0.622437C32.9016 0.622437 32.9016 0.622437 32.8016 0.622437C32.7016 0.622437 32.7016 0.622437 32.6016 0.722437C32.5016 0.722437 32.4016 0.822437 32.3016 0.822437C32.2016 0.822437 32.2016 0.922437 32.1016 0.922437C32.0016 1.02244 32.0016 1.02244 31.9016 1.12244C31.8016 1.22244 31.8016 1.22244 31.8016 1.32244C31.7016 1.52244 31.6016 1.82244 31.6016 2.12244L31.7016 8.72244Z" fill="#DC386A"/>
<path d="M11.4013 45.5225L13.0013 44.7225L4.60126 23.2225L29.9013 36.1225L33.2013 34.4225L31.6013 33.5225L22.1013 28.7225L19.4013 27.3225L2.50126 18.8225C1.90126 18.5225 1.30126 18.6225 0.801262 19.0225C0.301262 19.4225 0.201262 20.1225 0.401262 20.7225L10.6013 46.9225C10.6013 46.3225 10.9013 45.7225 11.4013 45.5225Z" fill="#DC386A"/>
<path d="M55.5016 47.3224C55.3016 47.9224 54.7016 48.3224 54.1016 48.3224H54.3016C54.5016 48.3224 54.6016 48.3224 54.7016 48.2224H54.8016C54.9016 48.2224 55.0016 48.1224 55.1016 48.0224C55.1016 48.0224 55.2016 48.0224 55.2016 47.9224C55.3016 47.8224 55.4016 47.7224 55.5016 47.6224C55.6016 47.5224 55.6016 47.3224 55.7016 47.2224V47.1224C55.7016 47.0224 55.7016 46.9224 55.7016 46.8224V46.7224L55.5016 47.3224Z" fill="#27B7CE"/>
<path d="M65.5016 19.0225C65.0016 18.6225 64.4016 18.5225 63.8016 18.8225L46.8016 27.5225L44.1016 28.9225L34.6016 33.7225L33.1016 34.5225L29.8016 36.2225L12.9016 44.8225L11.4016 45.5225C10.9016 45.8225 10.6016 46.3225 10.6016 46.9225C10.6016 47.0225 10.6016 47.0225 10.6016 47.1225V47.2225C10.6016 47.3225 10.7016 47.5225 10.8016 47.6225C10.9016 47.7225 11.0016 47.8225 11.1016 47.9225L11.2016 48.0225C11.3016 48.1225 11.4016 48.1225 11.5016 48.2225H11.6016C11.7016 48.2225 11.9016 48.3225 12.0016 48.3225H12.1016H33.1016H54.0016C54.6016 48.3225 55.2016 47.9225 55.4016 47.3225L55.7016 46.6225L65.8016 20.6225C66.1016 20.1225 66.0016 19.4225 65.5016 19.0225ZM53.1016 45.3225H52.0016H48.1016H34.7016H31.7016H18.3016L61.6016 23.2225L53.1016 45.3225Z" fill="#7F3488"/>
<path d="M89.3008 38.7225L83.2008 30.6225L81.6008 32.5225V38.7225H77.3008V18.5225H81.6008V27.5225L88.7008 18.5225H94.0008L86.0008 28.0225L94.6008 38.7225H89.3008Z" fill="black"/>
<path d="M94.1006 28.6224C94.1006 22.5224 98.5006 18.2224 104.601 18.2224C110.701 18.2224 115.201 22.6224 115.201 28.6224C115.201 34.7224 110.801 39.0224 104.601 39.0224C98.6006 39.0224 94.1006 34.7224 94.1006 28.6224ZM110.801 28.6224C110.801 24.8224 108.401 22.0224 104.701 22.0224C101.001 22.0224 98.6006 24.8224 98.6006 28.6224C98.6006 32.4224 101.001 35.2224 104.701 35.2224C108.401 35.2224 110.801 32.4224 110.801 28.6224Z" fill="black"/>
<path d="M118.201 38.7225V18.5225H127.601C132.001 18.5225 134.401 21.5225 134.401 25.0225C134.401 28.5225 132.001 31.5225 127.601 31.5225H122.501V38.7225H118.201ZM130.101 25.0225C130.101 23.3225 128.801 22.3225 127.101 22.3225H122.501V27.7225H127.101C128.801 27.7225 130.101 26.7225 130.101 25.0225Z" fill="black"/>
<path d="M148.801 38.7225L147.601 35.3225H139.001L137.701 38.7225H132.801L140.601 18.5225H146.001L153.801 38.7225H148.801ZM143.201 22.8225L140.101 31.5225H146.401L143.201 22.8225Z" fill="black"/>
<path d="M170.301 18.5225V22.3225H159.901V25.9225H165.101C169.401 25.9225 171.801 28.8225 171.801 32.3225C171.801 35.8225 169.401 38.7225 165.101 38.7225H155.601V18.5225H170.301ZM159.901 29.6225V34.9225H164.601C166.301 34.9225 167.501 33.9225 167.501 32.3225C167.501 30.7225 166.301 29.7225 164.601 29.7225H159.901V29.6225Z" fill="black"/>
<path d="M173.201 35.2225C175.201 35.2225 176.401 34.1225 177.001 28.8225L178.301 18.5225H192.601V38.7225H188.301V22.3225H182.201L181.401 29.1225C180.401 37.5225 177.401 39.0225 173.301 39.0225L173.201 35.2225Z" fill="black"/>
<path d="M196.601 38.7225V18.5225H200.901V31.5225L210.201 18.5225H214.601V38.7225H210.301V25.2225L200.701 38.7225H196.601Z" fill="black"/>
<path d="M230.601 38.7225L224.501 30.6225L222.901 32.5225V38.7225H218.601V18.5225H222.901V27.5225L230.001 18.5225H235.301L227.301 28.0225L235.901 38.7225H230.601Z" fill="black"/>
</g>
<defs>
<clipPath id="clip0">
<rect width="235.6" height="47.8" fill="white" transform="translate(0.300781 0.522461)"/>
</clipPath>
</defs>
</svg>
